<svg width="36" height="34" viewBox="0 0 36 34" fill="white" xmlns="http://www.w3.org/2000/svg">
<path fill-rule="evenodd" clip-rule="evenodd" d="M32.549 5.16027H28.3818C27.8813 5.16027 27.4759 5.54126 27.4759 6.01145C27.4759 6.48164 27.8813 6.86263 28.3818 6.86263H32.549C33.0487 6.86263 33.4549 7.2443 33.4549 7.71381V13.0191H2.41194V7.71381C2.41194 7.2443 2.81815 6.86263 3.31786 6.86263H8.08952C8.58995 6.86263 8.99544 6.48164 8.99544 6.01145C8.99544 5.54126 8.58995 5.16027 8.08952 5.16027H3.31786C1.8191 5.16027 0.600098 6.30562 0.600098 7.71381V30.7805C0.600098 32.1887 1.8191 33.334 3.31786 33.334H32.549C34.0478 33.334 35.2668 32.1887 35.2668 30.7805V7.71381C35.2668 6.30562 34.0478 5.16027 32.549 5.16027ZM33.4549 30.5626C33.4549 31.0077 33.0487 31.3696 32.549 31.3696H3.31786C2.81815 31.3696 2.41194 31.0077 2.41194 30.5626V15.3363H33.4549V30.5626ZM14.2498 6.97211H21.4971C21.9976 6.97211 22.4031 6.56662 22.4031 6.06619C22.4031 5.56576 21.9976 5.16027 21.4971 5.16027H14.2498C13.7493 5.16027 13.3439 5.56576 13.3439 6.06619C13.3439 6.56662 13.7493 6.97211 14.2498 6.97211ZM10.9841 11.867C12.0183 11.867 12.8597 11.0256 12.8597 9.99136C12.8597 9.28764 12.4651 8.68031 11.89 8.35926V1.50579C11.89 1.00536 11.4845 0.599869 10.9841 0.599869C10.4837 0.599869 10.0782 1.00536 10.0782 1.50579V8.35926C9.50312 8.68031 9.1085 9.28764 9.1085 9.99136C9.1085 11.0256 9.95028 11.867 10.9841 11.867ZM24.8831 11.867C25.9173 11.867 26.7587 11.0256 26.7587 9.99136C26.7587 9.28764 26.3641 8.68031 25.789 8.35926V1.50579C25.789 1.00536 25.3835 0.599869 24.8831 0.599869C24.3827 0.599869 23.9772 1.00536 23.9772 1.50579V8.35926C23.4021 8.68031 23.0075 9.28764 23.0075 9.99136C23.0075 11.0256 23.8489 11.867 24.8831 11.867Z" fill="currentColor"/>
<mask id="mask0" mask-type="alpha" maskUnits="userSpaceOnUse" x="0" y="0" width="36" height="34">
<path fill-rule="evenodd" clip-rule="evenodd" d="M32.549 5.16027H28.3818C27.8813 5.16027 27.4759 5.54126 27.4759 6.01145C27.4759 6.48164 27.8813 6.86263 28.3818 6.86263H32.549C33.0487 6.86263 33.4549 7.2443 33.4549 7.71381V13.0191H2.41194V7.71381C2.41194 7.2443 2.81815 6.86263 3.31786 6.86263H8.08952C8.58995 6.86263 8.99544 6.48164 8.99544 6.01145C8.99544 5.54126 8.58995 5.16027 8.08952 5.16027H3.31786C1.8191 5.16027 0.600098 6.30562 0.600098 7.71381V30.7805C0.600098 32.1887 1.8191 33.334 3.31786 33.334H32.549C34.0478 33.334 35.2668 32.1887 35.2668 30.7805V7.71381C35.2668 6.30562 34.0478 5.16027 32.549 5.16027ZM33.4549 30.5626C33.4549 31.0077 33.0487 31.3696 32.549 31.3696H3.31786C2.81815 31.3696 2.41194 31.0077 2.41194 30.5626V15.3363H33.4549V30.5626ZM14.2498 6.97211H21.4971C21.9976 6.97211 22.4031 6.56662 22.4031 6.06619C22.4031 5.56576 21.9976 5.16027 21.4971 5.16027H14.2498C13.7493 5.16027 13.3439 5.56576 13.3439 6.06619C13.3439 6.56662 13.7493 6.97211 14.2498 6.97211ZM10.9841 11.867C12.0183 11.867 12.8597 11.0256 12.8597 9.99136C12.8597 9.28764 12.4651 8.68031 11.89 8.35926V1.50579C11.89 1.00536 11.4845 0.599869 10.9841 0.599869C10.4837 0.599869 10.0782 1.00536 10.0782 1.50579V8.35926C9.50312 8.68031 9.1085 9.28764 9.1085 9.99136C9.1085 11.0256 9.95028 11.867 10.9841 11.867ZM24.8831 11.867C25.9173 11.867 26.7587 11.0256 26.7587 9.99136C26.7587 9.28764 26.3641 8.68031 25.789 8.35926V1.50579C25.789 1.00536 25.3835 0.599869 24.8831 0.599869C24.3827 0.599869 23.9772 1.00536 23.9772 1.50579V8.35926C23.4021 8.68031 23.0075 9.28764 23.0075 9.99136C23.0075 11.0256 23.8489 11.867 24.8831 11.867Z" fill="currentColor"/>
</mask>
<g mask="url(#mask0)">
</g>
</svg>
