<svg width="52" height="52" viewBox="0 0 52 52" fill="white" xmlns="http://www.w3.org/2000/svg">
<path fill-rule="evenodd" clip-rule="evenodd" d="M48.1481 17.4943C48.1481 18.9094 47.5704 20.1314 46.6074 21.0319C49.7531 22.3182 52 25.4699 52 29.0717C52 29.5862 51.5506 30.0365 51.037 30.0365C50.5235 30.0365 50.0741 29.5862 50.0741 29.0717C50.0741 25.3412 47.0568 22.3182 43.3333 22.3182C39.6099 22.3182 36.5926 25.3412 36.5926 29.0717V29.2646C40.5086 32.3519 43.0123 37.1758 43.0123 42.5786C43.0123 43.0931 42.563 43.5434 42.0494 43.5434C41.5358 43.5434 41.0864 43.0931 41.0864 42.5786C41.0864 34.2172 34.3457 27.4637 26 27.4637C17.6543 27.4637 10.9136 34.2172 10.9136 42.5786C10.9136 43.0931 10.4642 43.5434 9.95062 43.5434C9.43704 43.5434 8.98765 43.0931 8.98765 42.5786C8.98765 37.1758 11.4914 32.4163 15.4074 29.2646V29.0717C15.4074 25.3412 12.3901 22.3182 8.66667 22.3182C4.94321 22.3182 1.92593 25.3412 1.92593 29.0717C1.92593 29.5862 1.47654 30.0365 0.962963 30.0365C0.449383 30.0365 0 29.5862 0 29.0717C0 25.4699 2.24691 22.3182 5.39259 21.0319C4.42963 20.1314 3.85185 18.9094 3.85185 17.4943C3.85185 14.8573 6.03457 12.6705 8.66667 12.6705C11.2988 12.6705 13.4815 14.8573 13.4815 17.4943C13.4815 18.9094 12.9037 20.1314 11.9407 21.0319C14.7654 22.1896 16.8839 24.8267 17.2691 27.9783C18.4889 27.2065 19.9012 26.5633 21.3778 26.1774C18.7457 24.5694 17.0123 21.7394 17.0123 18.4591C17.0123 13.5066 21.0568 9.45453 26 9.45453C30.9432 9.45453 34.9877 13.5066 34.9877 18.4591C34.9877 21.7394 33.2543 24.6337 30.6222 26.1774C32.0346 26.6276 33.4469 27.2065 34.7309 27.9783C35.1161 24.8267 37.2346 22.1896 40.0593 21.0319C39.0963 20.1314 38.5185 18.9094 38.5185 17.4943C38.5185 14.8573 40.7012 12.6705 43.3333 12.6705C45.9654 12.6705 48.1481 14.8573 48.1481 17.4943ZM8.66667 14.6C7.06173 14.6 5.77778 15.8864 5.77778 17.4944C5.77778 19.1023 7.06173 20.3887 8.66667 20.3887C10.2716 20.3887 11.5556 19.1023 11.5556 17.4944C11.5556 15.8864 10.2716 14.6 8.66667 14.6ZM18.9383 18.4591C18.9383 14.5357 22.084 11.3841 26 11.3841C29.916 11.3841 33.0617 14.5357 33.0617 18.4591C33.0617 22.3826 29.916 25.5342 26 25.5342C22.084 25.5342 18.9383 22.3826 18.9383 18.4591ZM43.3333 14.6C41.7284 14.6 40.4444 15.8864 40.4444 17.4944C40.4444 19.1023 41.7284 20.3887 43.3333 20.3887C44.9383 20.3887 46.2222 19.1023 46.2222 17.4944C46.2222 15.8864 44.9383 14.6 43.3333 14.6Z" fill="currentColor"/>
<mask id="mask0" mask-type="alpha" maskUnits="userSpaceOnUse" x="0" y="9" width="52" height="35">
<path fill-rule="evenodd" clip-rule="evenodd" d="M48.1481 17.4943C48.1481 18.9094 47.5704 20.1314 46.6074 21.0319C49.7531 22.3182 52 25.4699 52 29.0717C52 29.5862 51.5506 30.0365 51.037 30.0365C50.5235 30.0365 50.0741 29.5862 50.0741 29.0717C50.0741 25.3412 47.0568 22.3182 43.3333 22.3182C39.6099 22.3182 36.5926 25.3412 36.5926 29.0717V29.2646C40.5086 32.3519 43.0123 37.1758 43.0123 42.5786C43.0123 43.0931 42.563 43.5434 42.0494 43.5434C41.5358 43.5434 41.0864 43.0931 41.0864 42.5786C41.0864 34.2172 34.3457 27.4637 26 27.4637C17.6543 27.4637 10.9136 34.2172 10.9136 42.5786C10.9136 43.0931 10.4642 43.5434 9.95062 43.5434C9.43704 43.5434 8.98765 43.0931 8.98765 42.5786C8.98765 37.1758 11.4914 32.4163 15.4074 29.2646V29.0717C15.4074 25.3412 12.3901 22.3182 8.66667 22.3182C4.94321 22.3182 1.92593 25.3412 1.92593 29.0717C1.92593 29.5862 1.47654 30.0365 0.962963 30.0365C0.449383 30.0365 0 29.5862 0 29.0717C0 25.4699 2.24691 22.3182 5.39259 21.0319C4.42963 20.1314 3.85185 18.9094 3.85185 17.4943C3.85185 14.8573 6.03457 12.6705 8.66667 12.6705C11.2988 12.6705 13.4815 14.8573 13.4815 17.4943C13.4815 18.9094 12.9037 20.1314 11.9407 21.0319C14.7654 22.1896 16.8839 24.8267 17.2691 27.9783C18.4889 27.2065 19.9012 26.5633 21.3778 26.1774C18.7457 24.5694 17.0123 21.7394 17.0123 18.4591C17.0123 13.5066 21.0568 9.45453 26 9.45453C30.9432 9.45453 34.9877 13.5066 34.9877 18.4591C34.9877 21.7394 33.2543 24.6337 30.6222 26.1774C32.0346 26.6276 33.4469 27.2065 34.7309 27.9783C35.1161 24.8267 37.2346 22.1896 40.0593 21.0319C39.0963 20.1314 38.5185 18.9094 38.5185 17.4943C38.5185 14.8573 40.7012 12.6705 43.3333 12.6705C45.9654 12.6705 48.1481 14.8573 48.1481 17.4943ZM8.66667 14.6C7.06173 14.6 5.77778 15.8864 5.77778 17.4944C5.77778 19.1023 7.06173 20.3887 8.66667 20.3887C10.2716 20.3887 11.5556 19.1023 11.5556 17.4944C11.5556 15.8864 10.2716 14.6 8.66667 14.6ZM18.9383 18.4591C18.9383 14.5357 22.084 11.3841 26 11.3841C29.916 11.3841 33.0617 14.5357 33.0617 18.4591C33.0617 22.3826 29.916 25.5342 26 25.5342C22.084 25.5342 18.9383 22.3826 18.9383 18.4591ZM43.3333 14.6C41.7284 14.6 40.4444 15.8864 40.4444 17.4944C40.4444 19.1023 41.7284 20.3887 43.3333 20.3887C44.9383 20.3887 46.2222 19.1023 46.2222 17.4944C46.2222 15.8864 44.9383 14.6 43.3333 14.6Z" fill="currentColor"/>
</mask>
<g mask="url(#mask0)">
</g>
</svg>
