<svg width="54" height="54" viewBox="0 0 54 54" fill="white" xmlns="http://www.w3.org/2000/svg">
<path fill-rule="evenodd" clip-rule="evenodd" d="M40.5 21.9998C40.5 12.5793 31.4164 4.9082 20.25 4.9082C9.08357 4.9082 0 12.5793 0 21.9998C0 26.1219 1.74536 30.073 4.91786 33.1797L3.86679 39.9359C3.80893 40.3179 3.96321 40.7 4.27179 40.9211C4.43571 41.0418 4.62857 41.1021 4.82143 41.1021C4.98536 41.1021 5.14929 41.0619 5.30357 40.9714L11.3593 37.3621C14.1075 38.4982 17.1739 39.0913 20.25 39.0913C31.4164 39.0913 40.5 31.4202 40.5 21.9998ZM42.5346 14.6605C42.0332 14.4594 41.4836 14.7108 41.2811 15.2336C41.0882 15.7463 41.3293 16.3294 41.8307 16.5406C48.1468 19.1043 52.0714 24.2821 52.0714 30.0429C52.0714 33.7427 50.4225 37.3018 47.4236 40.0666C47.1632 40.2878 47.0282 40.6497 47.0861 41.0016L47.8961 46.2196L43.1807 43.4146C42.9204 43.2637 42.6021 43.2436 42.3321 43.3643C39.7093 44.5104 36.7393 45.1237 33.75 45.1237C29.2564 45.1237 24.9268 43.7564 21.5614 41.2731C21.1275 40.9514 20.52 41.062 20.2211 41.5144C19.9125 41.9668 20.0186 42.6002 20.4525 42.9119C24.1361 45.6365 28.8611 47.1345 33.75 47.1345C36.8261 47.1345 39.8925 46.5413 42.6407 45.4052L48.6964 49.0146C48.8507 49.105 49.0146 49.1453 49.1786 49.1453C49.3714 49.1453 49.5643 49.0849 49.7282 48.9643C50.0368 48.7431 50.1911 48.3611 50.1332 47.979L49.0821 41.2228C52.2546 38.1162 54 34.165 54 30.0429C54 23.4275 49.6029 17.5359 42.5346 14.6605ZM6.09429 38.1764L10.8096 35.3714C11.07 35.2206 11.3786 35.2005 11.6582 35.3211C14.2907 36.4672 17.2607 37.0805 20.25 37.0805C30.3557 37.0805 38.5714 30.3143 38.5714 21.9997C38.5714 13.6852 30.3557 6.91893 20.25 6.91893C10.1443 6.91893 1.92857 13.6852 1.92857 21.9997C1.92857 25.7096 3.58714 29.2687 6.58607 32.0335C6.83679 32.2647 6.96214 32.6166 6.90429 32.9584L6.09429 38.1764ZM21.7579 17.9077C22.3599 17.9077 22.8039 17.4787 22.8039 16.9218C22.8039 16.3574 22.3599 15.9285 21.7579 15.9285C21.1559 15.9285 20.7119 16.3574 20.7119 16.9218C20.7119 17.4787 21.1559 17.9077 21.7579 17.9077ZM22.5631 27.54H20.9527V19.345H22.5631V27.54Z" fill="currentColor"/>
<mask id="mask0" mask-type="alpha" maskUnits="userSpaceOnUse" x="0" y="4" width="54" height="46">
<path fill-rule="evenodd" clip-rule="evenodd" d="M40.5 21.9998C40.5 12.5793 31.4164 4.9082 20.25 4.9082C9.08357 4.9082 0 12.5793 0 21.9998C0 26.1219 1.74536 30.073 4.91786 33.1797L3.86679 39.9359C3.80893 40.3179 3.96321 40.7 4.27179 40.9211C4.43571 41.0418 4.62857 41.1021 4.82143 41.1021C4.98536 41.1021 5.14929 41.0619 5.30357 40.9714L11.3593 37.3621C14.1075 38.4982 17.1739 39.0913 20.25 39.0913C31.4164 39.0913 40.5 31.4202 40.5 21.9998ZM42.5346 14.6605C42.0332 14.4594 41.4836 14.7108 41.2811 15.2336C41.0882 15.7463 41.3293 16.3294 41.8307 16.5406C48.1468 19.1043 52.0714 24.2821 52.0714 30.0429C52.0714 33.7427 50.4225 37.3018 47.4236 40.0666C47.1632 40.2878 47.0282 40.6497 47.0861 41.0016L47.8961 46.2196L43.1807 43.4146C42.9204 43.2637 42.6021 43.2436 42.3321 43.3643C39.7093 44.5104 36.7393 45.1237 33.75 45.1237C29.2564 45.1237 24.9268 43.7564 21.5614 41.2731C21.1275 40.9514 20.52 41.062 20.2211 41.5144C19.9125 41.9668 20.0186 42.6002 20.4525 42.9119C24.1361 45.6365 28.8611 47.1345 33.75 47.1345C36.8261 47.1345 39.8925 46.5413 42.6407 45.4052L48.6964 49.0146C48.8507 49.105 49.0146 49.1453 49.1786 49.1453C49.3714 49.1453 49.5643 49.0849 49.7282 48.9643C50.0368 48.7431 50.1911 48.3611 50.1332 47.979L49.0821 41.2228C52.2546 38.1162 54 34.165 54 30.0429C54 23.4275 49.6029 17.5359 42.5346 14.6605ZM6.09429 38.1764L10.8096 35.3714C11.07 35.2206 11.3786 35.2005 11.6582 35.3211C14.2907 36.4672 17.2607 37.0805 20.25 37.0805C30.3557 37.0805 38.5714 30.3143 38.5714 21.9997C38.5714 13.6852 30.3557 6.91893 20.25 6.91893C10.1443 6.91893 1.92857 13.6852 1.92857 21.9997C1.92857 25.7096 3.58714 29.2687 6.58607 32.0335C6.83679 32.2647 6.96214 32.6166 6.90429 32.9584L6.09429 38.1764ZM21.7579 17.9077C22.3599 17.9077 22.8039 17.4787 22.8039 16.9218C22.8039 16.3574 22.3599 15.9285 21.7579 15.9285C21.1559 15.9285 20.7119 16.3574 20.7119 16.9218C20.7119 17.4787 21.1559 17.9077 21.7579 17.9077ZM22.5631 27.54H20.9527V19.345H22.5631V27.54Z" fill="currentColor"/>
</mask>
<g mask="url(#mask0)">
</g>
</svg>
