<svg width="54" height="54" viewBox="0 0 54 54" fill="white" xmlns="http://www.w3.org/2000/svg">
<path fill-rule="evenodd" clip-rule="evenodd" d="M53.7948 43.4453C53.1348 41.1626 52.3548 38.9535 51.5748 36.818C51.3348 36.2289 51.1548 35.5662 50.9148 34.9771C50.0147 32.3262 49.1147 29.528 48.2147 26.877C47.4947 24.6679 46.7747 22.5325 46.0547 20.3234V20.2497C43.5347 11.8551 39.6947 7.36328 34.8347 7.36328H32.7346C32.1346 7.36328 31.6546 7.87874 31.5946 8.61511C31.2946 12.0024 29.3146 14.5061 27.0346 14.5061C24.7546 14.5061 22.7746 12.0024 22.4746 8.61511C22.4146 7.87874 21.8746 7.36328 21.3346 7.36328C21.2746 7.36328 21.1546 7.36328 21.0946 7.36328H18.9946C12.2145 7.36328 9.39451 15.4633 7.7745 20.2497V20.3234C6.9945 22.5325 6.27449 24.8888 5.55449 27.0979C4.71448 29.6752 3.81448 32.3998 2.97447 34.9771C2.73447 35.5662 2.55447 36.2289 2.31447 36.818C1.53446 38.9535 0.754459 41.1626 0.094455 43.4453C-0.445548 45.2126 1.47446 46.0962 2.19447 46.4644C3.21447 46.9799 5.19449 47.7899 6.69449 47.7899C7.5345 47.7899 8.1945 47.4953 8.4345 46.759L8.85451 45.5808C10.0545 42.0462 11.2545 38.5116 12.4545 34.9771C13.1145 32.9889 13.9545 31.0007 14.7345 29.0861V42.488C14.7345 45.4335 16.6546 47.7899 19.0546 47.7899H35.3747C37.7747 47.7899 39.6947 45.4335 39.6947 42.488V29.3807C40.0547 30.338 40.4147 31.3689 40.7747 32.3262C42.0347 35.7871 43.1747 39.248 44.3147 42.7089C44.7947 44.0344 45.2147 45.4335 45.6947 46.759C45.9347 47.4953 46.5947 47.7899 47.4347 47.7899C48.8747 47.7899 50.8548 46.9799 51.8748 46.4644C52.4148 46.0962 54.3348 45.2126 53.7948 43.4453ZM47.3745 45.0652C47.0145 43.9606 46.5944 42.7824 46.2345 41.6779C45.0944 38.217 43.8945 34.6824 42.6345 31.2215C42.1545 29.8224 41.6145 28.497 41.1345 27.0979C40.5345 25.4779 39.9345 23.9315 39.3945 22.3115C39.1545 21.5752 38.4944 21.2806 37.8945 21.5752C37.4145 21.7961 37.1745 22.3852 37.2345 22.9743V23.0479V42.4879C37.2345 43.887 36.3345 44.9915 35.1945 44.9915H18.8745C17.7345 44.9915 16.8345 43.887 16.8345 42.4879V23.1215V23.0479C16.8345 22.9743 16.8345 22.9006 16.8345 22.9006C16.8345 22.827 16.8345 22.827 16.8345 22.7533C16.8345 22.6797 16.8345 22.6797 16.7745 22.6061C16.7745 22.5324 16.7145 22.5324 16.7145 22.4588C16.7145 22.3852 16.6545 22.3852 16.6545 22.3115L16.5945 22.2379L16.5345 22.1643L16.4745 22.0906L16.4145 22.017C16.3545 22.017 16.3545 21.9433 16.2945 21.9433C16.2945 21.9433 16.2345 21.9433 16.2345 21.8697C16.1745 21.8697 16.1145 21.7961 16.1145 21.7961H16.0545H15.9945C15.9345 21.7961 15.8745 21.7961 15.8745 21.7961H15.8145C15.7545 21.7961 15.7545 21.7961 15.6945 21.7961C15.6345 21.7961 15.6345 21.7961 15.5745 21.8697C15.5145 21.8697 15.5145 21.8697 15.4545 21.8697C15.3945 21.8697 15.3945 21.9433 15.3345 21.9433C15.3345 21.9433 15.2745 21.9433 15.2745 22.017C15.2145 22.017 15.2145 22.0906 15.1545 22.0906L15.0945 22.1643C15.0945 22.1643 15.0345 22.2379 15.0345 22.3115L14.9745 22.3852C14.9145 22.4588 14.9145 22.5324 14.9145 22.5324V22.6061C14.2545 24.3733 13.5345 26.1406 12.8745 27.8343C12.0345 29.8224 11.2545 31.8843 10.4745 33.9461C9.27445 37.4806 8.01445 41.0888 6.87445 44.5497L6.69445 45.0652C5.67445 44.9179 3.51445 44.1815 2.61445 43.5924C3.21445 41.6779 3.87445 39.7633 4.53445 37.9224C4.77445 37.3333 4.95445 36.6706 5.19445 36.0815C6.09445 33.5043 6.99445 30.7797 7.83445 28.2024C8.55445 25.9933 9.33445 23.637 10.0545 21.4279V21.3543C12.0945 15.4633 14.3145 10.1615 19.1745 10.1615H20.6145C21.1545 14.3588 23.9145 17.3043 27.0345 17.3043C30.2145 17.3043 32.9145 14.2852 33.6945 10.1615H34.8945C38.7944 10.1615 41.8545 13.917 44.0145 21.3543C44.0145 21.3543 44.0145 21.3543 44.0145 21.4279C44.7345 23.5633 45.4544 25.7724 46.1744 27.9079C47.0744 30.5588 47.9744 33.357 48.8745 36.0079C49.1144 36.597 49.2944 37.2597 49.5345 37.8488C50.1945 39.6897 50.8545 41.6779 51.4544 43.5924C50.4944 44.1079 48.3945 44.9179 47.3745 45.0652Z" fill="currentColor"/>
<mask id="mask0" mask-type="alpha" maskUnits="userSpaceOnUse" x="0" y="7" width="54" height="41">
<path fill-rule="evenodd" clip-rule="evenodd" d="M53.7948 43.4453C53.1348 41.1626 52.3548 38.9535 51.5748 36.818C51.3348 36.2289 51.1548 35.5662 50.9148 34.9771C50.0147 32.3262 49.1147 29.528 48.2147 26.877C47.4947 24.6679 46.7747 22.5325 46.0547 20.3234V20.2497C43.5347 11.8551 39.6947 7.36328 34.8347 7.36328H32.7346C32.1346 7.36328 31.6546 7.87874 31.5946 8.61511C31.2946 12.0024 29.3146 14.5061 27.0346 14.5061C24.7546 14.5061 22.7746 12.0024 22.4746 8.61511C22.4146 7.87874 21.8746 7.36328 21.3346 7.36328C21.2746 7.36328 21.1546 7.36328 21.0946 7.36328H18.9946C12.2145 7.36328 9.39451 15.4633 7.7745 20.2497V20.3234C6.9945 22.5325 6.27449 24.8888 5.55449 27.0979C4.71448 29.6752 3.81448 32.3998 2.97447 34.9771C2.73447 35.5662 2.55447 36.2289 2.31447 36.818C1.53446 38.9535 0.754459 41.1626 0.094455 43.4453C-0.445548 45.2126 1.47446 46.0962 2.19447 46.4644C3.21447 46.9799 5.19449 47.7899 6.69449 47.7899C7.5345 47.7899 8.1945 47.4953 8.4345 46.759L8.85451 45.5808C10.0545 42.0462 11.2545 38.5116 12.4545 34.9771C13.1145 32.9889 13.9545 31.0007 14.7345 29.0861V42.488C14.7345 45.4335 16.6546 47.7899 19.0546 47.7899H35.3747C37.7747 47.7899 39.6947 45.4335 39.6947 42.488V29.3807C40.0547 30.338 40.4147 31.3689 40.7747 32.3262C42.0347 35.7871 43.1747 39.248 44.3147 42.7089C44.7947 44.0344 45.2147 45.4335 45.6947 46.759C45.9347 47.4953 46.5947 47.7899 47.4347 47.7899C48.8747 47.7899 50.8548 46.9799 51.8748 46.4644C52.4148 46.0962 54.3348 45.2126 53.7948 43.4453ZM47.3745 45.0652C47.0145 43.9606 46.5944 42.7824 46.2345 41.6779C45.0944 38.217 43.8945 34.6824 42.6345 31.2215C42.1545 29.8224 41.6145 28.497 41.1345 27.0979C40.5345 25.4779 39.9345 23.9315 39.3945 22.3115C39.1545 21.5752 38.4944 21.2806 37.8945 21.5752C37.4145 21.7961 37.1745 22.3852 37.2345 22.9743V23.0479V42.4879C37.2345 43.887 36.3345 44.9915 35.1945 44.9915H18.8745C17.7345 44.9915 16.8345 43.887 16.8345 42.4879V23.1215V23.0479C16.8345 22.9743 16.8345 22.9006 16.8345 22.9006C16.8345 22.827 16.8345 22.827 16.8345 22.7533C16.8345 22.6797 16.8345 22.6797 16.7745 22.6061C16.7745 22.5324 16.7145 22.5324 16.7145 22.4588C16.7145 22.3852 16.6545 22.3852 16.6545 22.3115L16.5945 22.2379L16.5345 22.1643L16.4745 22.0906L16.4145 22.017C16.3545 22.017 16.3545 21.9433 16.2945 21.9433C16.2945 21.9433 16.2345 21.9433 16.2345 21.8697C16.1745 21.8697 16.1145 21.7961 16.1145 21.7961H16.0545H15.9945C15.9345 21.7961 15.8745 21.7961 15.8745 21.7961H15.8145C15.7545 21.7961 15.7545 21.7961 15.6945 21.7961C15.6345 21.7961 15.6345 21.7961 15.5745 21.8697C15.5145 21.8697 15.5145 21.8697 15.4545 21.8697C15.3945 21.8697 15.3945 21.9433 15.3345 21.9433C15.3345 21.9433 15.2745 21.9433 15.2745 22.017C15.2145 22.017 15.2145 22.0906 15.1545 22.0906L15.0945 22.1643C15.0945 22.1643 15.0345 22.2379 15.0345 22.3115L14.9745 22.3852C14.9145 22.4588 14.9145 22.5324 14.9145 22.5324V22.6061C14.2545 24.3733 13.5345 26.1406 12.8745 27.8343C12.0345 29.8224 11.2545 31.8843 10.4745 33.9461C9.27445 37.4806 8.01445 41.0888 6.87445 44.5497L6.69445 45.0652C5.67445 44.9179 3.51445 44.1815 2.61445 43.5924C3.21445 41.6779 3.87445 39.7633 4.53445 37.9224C4.77445 37.3333 4.95445 36.6706 5.19445 36.0815C6.09445 33.5043 6.99445 30.7797 7.83445 28.2024C8.55445 25.9933 9.33445 23.637 10.0545 21.4279V21.3543C12.0945 15.4633 14.3145 10.1615 19.1745 10.1615H20.6145C21.1545 14.3588 23.9145 17.3043 27.0345 17.3043C30.2145 17.3043 32.9145 14.2852 33.6945 10.1615H34.8945C38.7944 10.1615 41.8545 13.917 44.0145 21.3543C44.0145 21.3543 44.0145 21.3543 44.0145 21.4279C44.7345 23.5633 45.4544 25.7724 46.1744 27.9079C47.0744 30.5588 47.9744 33.357 48.8745 36.0079C49.1144 36.597 49.2944 37.2597 49.5345 37.8488C50.1945 39.6897 50.8545 41.6779 51.4544 43.5924C50.4944 44.1079 48.3945 44.9179 47.3745 45.0652Z" fill="currentColor"/>
</mask>
<g mask="url(#mask0)">
</g>
</svg>
