<svg width="54" height="54" viewBox="0 0 54 54" fill="white" xmlns="http://www.w3.org/2000/svg">
<path fill-rule="evenodd" clip-rule="evenodd" d="M54 27.4918C54 30.4694 51.5776 32.8918 48.6 32.8918C45.6224 32.8918 43.2 30.4694 43.2 27.4918C43.2 24.5142 45.6224 22.0918 48.6 22.0918C51.5776 22.0918 54 24.5142 54 27.4918ZM51.84 27.4917C51.84 25.7054 50.3863 24.2517 48.6 24.2517C46.8137 24.2517 45.36 25.7054 45.36 27.4917C45.36 29.2781 46.8137 30.7317 48.6 30.7317C50.3863 30.7317 51.84 29.2781 51.84 27.4917ZM27 32.8918C29.9776 32.8918 32.4 30.4694 32.4 27.4918C32.4 24.5142 29.9776 22.0918 27 22.0918C24.0224 22.0918 21.6 24.5142 21.6 27.4918C21.6 30.4694 24.0224 32.8918 27 32.8918ZM27 24.2517C28.7863 24.2517 30.24 25.7054 30.24 27.4917C30.24 29.2781 28.7863 30.7317 27 30.7317C25.2137 30.7317 23.76 29.2781 23.76 27.4917C23.76 25.7054 25.2137 24.2517 27 24.2517ZM10.8 27.4918C10.8 30.4694 8.37756 32.8918 5.4 32.8918C2.42244 32.8918 0 30.4694 0 27.4918C0 24.5142 2.42244 22.0918 5.4 22.0918C8.37756 22.0918 10.8 24.5142 10.8 27.4918ZM8.64 27.4917C8.64 25.7054 7.18632 24.2517 5.4 24.2517C3.61368 24.2517 2.16 25.7054 2.16 27.4917C2.16 29.2781 3.61368 30.7317 5.4 30.7317C7.18632 30.7317 8.64 29.2781 8.64 27.4917Z" fill="currentColor"/>
<mask id="mask0" mask-type="alpha" maskUnits="userSpaceOnUse" x="0" y="22" width="54" height="11">
<path fill-rule="evenodd" clip-rule="evenodd" d="M54 27.4918C54 30.4694 51.5776 32.8918 48.6 32.8918C45.6224 32.8918 43.2 30.4694 43.2 27.4918C43.2 24.5142 45.6224 22.0918 48.6 22.0918C51.5776 22.0918 54 24.5142 54 27.4918ZM51.84 27.4917C51.84 25.7054 50.3863 24.2517 48.6 24.2517C46.8137 24.2517 45.36 25.7054 45.36 27.4917C45.36 29.2781 46.8137 30.7317 48.6 30.7317C50.3863 30.7317 51.84 29.2781 51.84 27.4917ZM27 32.8918C29.9776 32.8918 32.4 30.4694 32.4 27.4918C32.4 24.5142 29.9776 22.0918 27 22.0918C24.0224 22.0918 21.6 24.5142 21.6 27.4918C21.6 30.4694 24.0224 32.8918 27 32.8918ZM27 24.2517C28.7863 24.2517 30.24 25.7054 30.24 27.4917C30.24 29.2781 28.7863 30.7317 27 30.7317C25.2137 30.7317 23.76 29.2781 23.76 27.4917C23.76 25.7054 25.2137 24.2517 27 24.2517ZM10.8 27.4918C10.8 30.4694 8.37756 32.8918 5.4 32.8918C2.42244 32.8918 0 30.4694 0 27.4918C0 24.5142 2.42244 22.0918 5.4 22.0918C8.37756 22.0918 10.8 24.5142 10.8 27.4918ZM8.64 27.4917C8.64 25.7054 7.18632 24.2517 5.4 24.2517C3.61368 24.2517 2.16 25.7054 2.16 27.4917C2.16 29.2781 3.61368 30.7317 5.4 30.7317C7.18632 30.7317 8.64 29.2781 8.64 27.4917Z" fill="currentColor"/>
</mask>
<g mask="url(#mask0)">
</g>
</svg>
