<svg width="58" height="50" viewBox="0 0 58 50" fill="none" xmlns="http://www.w3.org/2000/svg">
<path fill-rule="evenodd" clip-rule="evenodd" d="M23 34C15.413 34 12 25.229 12 19C12 10.495 15.804 6 23 6C30.196 6 34 10.495 34 19C34 25.229 30.587 34 23 34ZM23 8C16.944 8 14 11.598 14 19C14 24.243 16.86 32 23 32C29.14 32 32 24.243 32 19C32 11.598 29.056 8 23 8ZM23 50C16.084 50 0 49.514 0 45C0 44.959 0.002 44.917 0.008 44.876C1.02 36.777 3.028 33.143 12.844 31.59C13.388 31.5 13.902 31.876 13.988 32.421C14.074 32.967 13.702 33.479 13.156 33.565C4.649 34.91 2.96 37.48 2.006 45.018C2.375 46.061 8.854 48 23 48C37.117 48 43.598 46.066 43.994 45.011C43.039 37.479 41.349 34.909 32.843 33.565C32.298 33.479 31.925 32.966 32.012 32.42C32.098 31.875 32.619 31.499 33.155 31.589C42.973 33.143 44.981 36.777 45.993 44.876C45.998 44.917 46 44.959 46 45C46 49.514 29.916 50 23 50ZM37.953 24C37.585 24 37.228 23.979 36.884 23.938C36.336 23.874 35.944 23.376 36.008 22.829C36.072 22.279 36.572 21.884 37.118 21.952C37.387 21.983 37.665 22 37.953 22C43.814 22 46 15.253 46 11C46 4.775 43.518 2 37.953 2C34.443 2 32.177 3.127 31.019 5.445C30.773 5.938 30.17 6.143 29.679 5.893C29.185 5.647 28.984 5.046 29.23 4.552C30.736 1.532 33.671 0 37.953 0C44.62 0 48 3.701 48 11C48 16.026 45.271 24 37.953 24ZM46.999 37.773C46.475 37.773 46.033 37.364 46.002 36.833C45.969 36.281 46.389 35.809 46.94 35.775C54.8 35.306 55.864 34.189 55.989 34.001C55.014 27.201 54.237 24.399 46.014 23.577C45.465 23.522 45.065 23.032 45.118 22.482C45.174 21.933 45.664 21.537 46.213 21.586C55.909 22.556 56.962 26.67 57.988 33.857C57.997 33.904 58 33.953 58 34C58 36.216 54.83 37.309 47.061 37.771C47.039 37.771 47.02 37.773 46.999 37.773Z" fill="#A5A59C"/>
<mask id="mask0" mask-type="alpha" maskUnits="userSpaceOnUse" x="0" y="0" width="58" height="50">
<path fill-rule="evenodd" clip-rule="evenodd" d="M23 34C15.413 34 12 25.229 12 19C12 10.495 15.804 6 23 6C30.196 6 34 10.495 34 19C34 25.229 30.587 34 23 34ZM23 8C16.944 8 14 11.598 14 19C14 24.243 16.86 32 23 32C29.14 32 32 24.243 32 19C32 11.598 29.056 8 23 8ZM23 50C16.084 50 0 49.514 0 45C0 44.959 0.002 44.917 0.008 44.876C1.02 36.777 3.028 33.143 12.844 31.59C13.388 31.5 13.902 31.876 13.988 32.421C14.074 32.967 13.702 33.479 13.156 33.565C4.649 34.91 2.96 37.48 2.006 45.018C2.375 46.061 8.854 48 23 48C37.117 48 43.598 46.066 43.994 45.011C43.039 37.479 41.349 34.909 32.843 33.565C32.298 33.479 31.925 32.966 32.012 32.42C32.098 31.875 32.619 31.499 33.155 31.589C42.973 33.143 44.981 36.777 45.993 44.876C45.998 44.917 46 44.959 46 45C46 49.514 29.916 50 23 50ZM37.953 24C37.585 24 37.228 23.979 36.884 23.938C36.336 23.874 35.944 23.376 36.008 22.829C36.072 22.279 36.572 21.884 37.118 21.952C37.387 21.983 37.665 22 37.953 22C43.814 22 46 15.253 46 11C46 4.775 43.518 2 37.953 2C34.443 2 32.177 3.127 31.019 5.445C30.773 5.938 30.17 6.143 29.679 5.893C29.185 5.647 28.984 5.046 29.23 4.552C30.736 1.532 33.671 0 37.953 0C44.62 0 48 3.701 48 11C48 16.026 45.271 24 37.953 24ZM46.999 37.773C46.475 37.773 46.033 37.364 46.002 36.833C45.969 36.281 46.389 35.809 46.94 35.775C54.8 35.306 55.864 34.189 55.989 34.001C55.014 27.201 54.237 24.399 46.014 23.577C45.465 23.522 45.065 23.032 45.118 22.482C45.174 21.933 45.664 21.537 46.213 21.586C55.909 22.556 56.962 26.67 57.988 33.857C57.997 33.904 58 33.953 58 34C58 36.216 54.83 37.309 47.061 37.771C47.039 37.771 47.02 37.773 46.999 37.773Z" fill="white"/>
</mask>
<g mask="url(#mask0)">
</g>
</svg>
