<svg width="52" height="52" viewBox="0 0 52 52" fill="white" xmlns="http://www.w3.org/2000/svg">
<path fill-rule="evenodd" clip-rule="evenodd" d="M4.72705 3.95805C4.72705 3.07868 5.5244 2.36364 6.50797 2.36364H45.6586C46.6432 2.36364 47.4396 3.07748 47.4396 3.95805V11.4376H47.4996V14.7411H47.4396V47.4811C47.4396 48.3604 46.6422 49.0755 45.6586 49.0755H6.50797C5.52341 49.0755 4.72705 48.3616 4.72705 47.4811V3.95805ZM44.3962 6.52494V11.4376H7.27615V6.52494C7.27615 5.74534 7.9691 5.11142 8.8239 5.11142H42.8485C43.7041 5.11142 44.3962 5.74428 44.3962 6.52494ZM7.27615 45.11V14.7411H44.3962V45.11C44.3962 45.8896 43.7033 46.5235 42.8485 46.5235H8.8239C7.96824 46.5235 7.27615 45.8906 7.27615 45.11ZM36.0678 7.47443C36.0678 8.43696 35.2875 9.21725 34.3249 9.21725C33.3623 9.21725 32.582 8.43696 32.582 7.47443C32.582 6.5119 33.3623 5.73161 34.3249 5.73161C35.2875 5.73161 36.0678 6.5119 36.0678 7.47443ZM41.4301 9.21725C42.3927 9.21725 43.173 8.43696 43.173 7.47443C43.173 6.5119 42.3927 5.73161 41.4301 5.73161C40.4676 5.73161 39.6872 6.5119 39.6872 7.47443C39.6872 8.43696 40.4676 9.21725 41.4301 9.21725ZM40.642 30.3472C40.642 38.296 34.1895 44.7398 26.23 44.7398C18.2704 44.7398 11.818 38.296 11.818 30.3472C11.818 22.3983 18.2704 15.9545 26.23 15.9545C34.1895 15.9545 40.642 22.3983 40.642 30.3472ZM26.5373 41.4574C32.6387 41.4574 37.5848 36.5179 37.5848 30.4248C37.5848 24.3316 32.6387 19.3922 26.5373 19.3922C20.436 19.3922 15.4899 24.3316 15.4899 30.4248C15.4899 36.5179 20.436 41.4574 26.5373 41.4574ZM26.3355 39.7257C31.6626 39.7257 35.9942 35.3676 35.9942 29.9989C35.9942 29.0685 35.8647 28.1827 35.6171 27.3221C35.0123 27.8997 34.1858 28.2473 33.3019 28.2473C32.3902 28.2473 31.5651 27.8997 30.9598 27.2899C30.3677 27.8869 29.5295 28.2478 28.6187 28.2478C27.7207 28.2478 26.921 27.913 26.3223 27.3354C25.7246 27.9134 24.9183 28.2478 24.0339 28.2478C23.1824 28.2478 22.4016 27.94 21.8104 27.4019C21.2117 27.94 20.4436 28.2478 19.5851 28.2478C18.5967 28.2478 17.7194 27.8275 17.1004 27.1322C16.8345 28.0374 16.6843 28.9958 16.6843 29.9989C16.6843 35.3672 21.0028 39.7257 26.3355 39.7257Z" fill="currentColor"/>
<mask id="mask0" mask-type="alpha" maskUnits="userSpaceOnUse" x="4" y="2" width="44" height="48">
<path fill-rule="evenodd" clip-rule="evenodd" d="M4.72705 3.95805C4.72705 3.07868 5.5244 2.36364 6.50797 2.36364H45.6586C46.6432 2.36364 47.4396 3.07748 47.4396 3.95805V11.4376H47.4996V14.7411H47.4396V47.4811C47.4396 48.3604 46.6422 49.0755 45.6586 49.0755H6.50797C5.52341 49.0755 4.72705 48.3616 4.72705 47.4811V3.95805ZM44.3962 6.52494V11.4376H7.27615V6.52494C7.27615 5.74534 7.9691 5.11142 8.8239 5.11142H42.8485C43.7041 5.11142 44.3962 5.74428 44.3962 6.52494ZM7.27615 45.11V14.7411H44.3962V45.11C44.3962 45.8896 43.7033 46.5235 42.8485 46.5235H8.8239C7.96824 46.5235 7.27615 45.8906 7.27615 45.11ZM36.0678 7.47443C36.0678 8.43696 35.2875 9.21725 34.3249 9.21725C33.3623 9.21725 32.582 8.43696 32.582 7.47443C32.582 6.5119 33.3623 5.73161 34.3249 5.73161C35.2875 5.73161 36.0678 6.5119 36.0678 7.47443ZM41.4301 9.21725C42.3927 9.21725 43.173 8.43696 43.173 7.47443C43.173 6.5119 42.3927 5.73161 41.4301 5.73161C40.4676 5.73161 39.6872 6.5119 39.6872 7.47443C39.6872 8.43696 40.4676 9.21725 41.4301 9.21725ZM40.642 30.3472C40.642 38.296 34.1895 44.7398 26.23 44.7398C18.2704 44.7398 11.818 38.296 11.818 30.3472C11.818 22.3983 18.2704 15.9545 26.23 15.9545C34.1895 15.9545 40.642 22.3983 40.642 30.3472ZM26.5373 41.4574C32.6387 41.4574 37.5848 36.5179 37.5848 30.4248C37.5848 24.3316 32.6387 19.3922 26.5373 19.3922C20.436 19.3922 15.4899 24.3316 15.4899 30.4248C15.4899 36.5179 20.436 41.4574 26.5373 41.4574ZM26.3355 39.7257C31.6626 39.7257 35.9942 35.3676 35.9942 29.9989C35.9942 29.0685 35.8647 28.1827 35.6171 27.3221C35.0123 27.8997 34.1858 28.2473 33.3019 28.2473C32.3902 28.2473 31.5651 27.8997 30.9598 27.2899C30.3677 27.8869 29.5295 28.2478 28.6187 28.2478C27.7207 28.2478 26.921 27.913 26.3223 27.3354C25.7246 27.9134 24.9183 28.2478 24.0339 28.2478C23.1824 28.2478 22.4016 27.94 21.8104 27.4019C21.2117 27.94 20.4436 28.2478 19.5851 28.2478C18.5967 28.2478 17.7194 27.8275 17.1004 27.1322C16.8345 28.0374 16.6843 28.9958 16.6843 29.9989C16.6843 35.3672 21.0028 39.7257 26.3355 39.7257Z" fill="currentColor"/>
</mask>
<g mask="url(#mask0)">
</g>
</svg>
