<svg width="52" height="52" viewBox="0 0 52 52" fill="white" xmlns="http://www.w3.org/2000/svg">
<path fill-rule="evenodd" clip-rule="evenodd" d="M36.2581 18.4769C36.2581 18.8926 35.918 19.2327 35.5023 19.2327C35.0866 19.2327 34.7464 18.8926 34.7464 18.4769C34.7464 17.0787 35.1999 16.3606 35.6156 15.7182C35.6411 15.6758 35.6664 15.6341 35.6913 15.5931L35.6922 15.5917L35.6932 15.59L35.6935 15.5895C36.0006 15.0839 36.2581 14.6599 36.2581 13.7531C36.2581 12.7705 35.9935 12.3548 35.6156 11.788C35.1999 11.1455 34.7464 10.4275 34.7464 9.02925C34.7464 8.61355 35.0866 8.27344 35.5023 8.27344C35.918 8.27344 36.2581 8.61355 36.2581 9.02925C36.2581 9.97402 36.5226 10.4275 36.9005 10.9944C37.3162 11.6368 37.7697 12.3548 37.7697 13.7531C37.7697 15.1513 37.3162 15.8694 36.9005 16.5118C36.5226 17.0787 36.2581 17.5322 36.2581 18.4769ZM10.9711 25.9595C10.9711 26.3844 11.3187 26.7321 11.7437 26.7321C12.1686 26.7321 12.5163 26.3844 12.5163 25.9595C12.5163 24.5302 12.0527 23.7962 11.6278 23.1395C11.2415 22.56 10.9711 22.0965 10.9711 21.1307C10.9711 20.1649 11.2415 19.7014 11.6278 19.1219C12.0527 18.4652 12.5163 17.7312 12.5163 16.3019C12.5163 15.8769 12.1686 15.5293 11.7437 15.5293C11.3187 15.5293 10.9711 15.8769 10.9711 16.3019C10.9711 17.2676 10.7006 17.7312 10.3143 18.3107C9.88941 18.9674 9.42584 19.7014 9.42584 21.1307C9.42584 22.56 9.88941 23.294 10.3143 23.9507C10.7393 24.5302 10.9711 24.9937 10.9711 25.9595ZM16.6111 26.7321C16.1862 26.7321 15.8385 26.3844 15.8385 25.9595C15.8385 24.9937 15.5681 24.5302 15.1818 23.9507C14.7568 23.294 14.2933 22.56 14.2933 21.1307C14.2933 19.7014 14.7568 18.9674 15.1818 18.3107C15.5681 17.7312 15.8385 17.2676 15.8385 16.3019C15.8385 15.8769 16.1862 15.5293 16.6111 15.5293C17.036 15.5293 17.3837 15.8769 17.3837 16.3019C17.3837 17.7312 16.9202 18.4652 16.4952 19.1219C16.1089 19.7014 15.8385 20.1263 15.8385 21.1307C15.8385 22.0576 16.1017 22.4911 16.4156 23.0079C16.4418 23.051 16.4684 23.0948 16.4952 23.1395C16.9202 23.7962 17.3837 24.5302 17.3837 25.9595C17.3837 26.3844 17.036 26.7321 16.6111 26.7321ZM21.4013 26.7321C20.9764 26.7321 20.6287 26.3844 20.6287 25.9595C20.6287 24.9937 20.3969 24.5302 19.972 23.9507C19.547 23.294 19.0835 22.56 19.0835 21.1307C19.0835 19.7014 19.547 18.9674 19.972 18.3107C20.3583 17.7312 20.6287 17.2676 20.6287 16.3019C20.6287 15.8769 20.9764 15.5293 21.4013 15.5293C21.8262 15.5293 22.1739 15.8769 22.1739 16.3019C22.1739 17.7312 21.7103 18.4652 21.2854 19.1219C20.8991 19.7014 20.6287 20.1649 20.6287 21.1307C20.6287 22.0965 20.8991 22.56 21.2854 23.1395C21.7103 23.7962 22.1739 24.5302 22.1739 25.9595C22.1739 26.3844 21.8262 26.7321 21.4013 26.7321ZM6.56718 27.891H24.3372C24.7235 27.891 24.878 28.2387 24.9167 28.6636V35.4626C24.9167 39.8279 21.5944 43.3432 17.2292 43.3432H13.6752C10.6234 43.3432 7.99651 41.6049 6.68308 39.0939H3.86305C1.73837 39.0939 0 37.3555 0 35.2308C0 33.1061 1.73837 31.3678 3.86305 31.3678H5.60142V28.6636C5.60142 28.2387 6.14225 27.891 6.56718 27.891ZM3.86305 37.5486C2.58824 37.5486 1.54522 36.5056 1.54522 35.2308C1.54522 33.956 2.58824 32.9129 3.86305 32.9129H5.60142V35.4625C5.60142 35.9704 5.74935 36.4597 5.89169 36.9305C5.95509 37.1402 6.01737 37.3462 6.06499 37.5486H3.86305ZM17.1906 41.7979C20.6673 41.7979 23.3328 38.9393 23.3328 35.4625V29.4362H7.10801V35.4625C7.10801 38.9393 10.1598 41.7979 13.6366 41.7979H17.1906ZM30.8162 19.2327C31.2319 19.2327 31.572 18.8926 31.572 18.4769C31.572 17.5322 31.7988 17.0787 32.2145 16.5118C32.6302 15.8694 33.0837 15.1513 33.0837 13.7531C33.0837 12.3548 32.6302 11.6368 32.2145 10.9944C31.8366 10.4275 31.572 9.97402 31.572 9.02925C31.572 8.61355 31.2319 8.27344 30.8162 8.27344C30.4005 8.27344 30.0604 8.61355 30.0604 9.02925C30.0604 10.4275 30.5139 11.1455 30.9296 11.788C31.3075 12.3548 31.572 12.8083 31.572 13.7531C31.572 14.6979 31.3075 15.1513 30.9296 15.7182C30.5139 16.3606 30.0604 17.0787 30.0604 18.4769C30.0604 18.8926 30.4005 19.2327 30.8162 19.2327ZM41.0197 18.4769C41.0197 18.8926 40.6796 19.2327 40.2639 19.2327C39.8482 19.2327 39.5081 18.8926 39.5081 18.4769C39.5081 17.0787 39.9616 16.3606 40.3773 15.7182C40.7552 15.1513 41.0197 14.6979 41.0197 13.7531C41.0197 12.8083 40.7552 12.3548 40.3773 11.788C39.9616 11.1455 39.5081 10.4275 39.5081 9.02925C39.5081 8.61355 39.8482 8.27344 40.2639 8.27344C40.6796 8.27344 41.0197 8.61355 41.0197 9.02925C41.0197 9.97402 41.2842 10.4275 41.6621 10.9944C42.0778 11.6368 42.5313 12.3548 42.5313 13.7531C42.5313 15.1513 42.0778 15.8694 41.6621 16.5118C41.2464 17.0787 41.0197 17.5322 41.0197 18.4769ZM45.3278 20.3664H27.9441C27.5662 20.3664 27.4151 20.7066 27.3773 21.1223V27.7734C27.3773 32.0438 30.6273 35.4827 34.8976 35.4827H38.3744C41.3598 35.4827 43.9296 33.7821 45.2145 31.3257H47.9732C50.0517 31.3257 51.7523 29.6252 51.7523 27.5467C51.7523 25.4682 50.0517 23.7676 47.9732 23.7676H46.2726V21.1223C46.2726 20.7066 45.7435 20.3664 45.3278 20.3664ZM47.9732 29.8142C49.2203 29.8142 50.2406 28.7938 50.2406 27.5467C50.2406 26.2996 49.2203 25.2793 47.9732 25.2793H46.2726V27.7735C46.2726 28.2702 46.1279 28.7489 45.9887 29.2095L45.9886 29.2096C45.9266 29.4147 45.8657 29.6162 45.8191 29.8142H47.9732ZM34.9354 33.9711C31.5342 33.9711 28.9267 31.1746 28.9267 27.7735V21.8781H44.7988V27.7735C44.7988 31.1746 41.8133 33.9711 38.4121 33.9711H34.9354Z" fill="currentColor"/>
<mask id="mask0" mask-type="alpha" maskUnits="userSpaceOnUse" x="0" y="8" width="52" height="36">
<path fill-rule="evenodd" clip-rule="evenodd" d="M36.2581 18.4769C36.2581 18.8926 35.918 19.2327 35.5023 19.2327C35.0866 19.2327 34.7464 18.8926 34.7464 18.4769C34.7464 17.0787 35.1999 16.3606 35.6156 15.7182C35.6411 15.6758 35.6664 15.6341 35.6913 15.5931L35.6922 15.5917L35.6932 15.59L35.6935 15.5895C36.0006 15.0839 36.2581 14.6599 36.2581 13.7531C36.2581 12.7705 35.9935 12.3548 35.6156 11.788C35.1999 11.1455 34.7464 10.4275 34.7464 9.02925C34.7464 8.61355 35.0866 8.27344 35.5023 8.27344C35.918 8.27344 36.2581 8.61355 36.2581 9.02925C36.2581 9.97402 36.5226 10.4275 36.9005 10.9944C37.3162 11.6368 37.7697 12.3548 37.7697 13.7531C37.7697 15.1513 37.3162 15.8694 36.9005 16.5118C36.5226 17.0787 36.2581 17.5322 36.2581 18.4769ZM10.9711 25.9595C10.9711 26.3844 11.3187 26.7321 11.7437 26.7321C12.1686 26.7321 12.5163 26.3844 12.5163 25.9595C12.5163 24.5302 12.0527 23.7962 11.6278 23.1395C11.2415 22.56 10.9711 22.0965 10.9711 21.1307C10.9711 20.1649 11.2415 19.7014 11.6278 19.1219C12.0527 18.4652 12.5163 17.7312 12.5163 16.3019C12.5163 15.8769 12.1686 15.5293 11.7437 15.5293C11.3187 15.5293 10.9711 15.8769 10.9711 16.3019C10.9711 17.2676 10.7006 17.7312 10.3143 18.3107C9.88941 18.9674 9.42584 19.7014 9.42584 21.1307C9.42584 22.56 9.88941 23.294 10.3143 23.9507C10.7393 24.5302 10.9711 24.9937 10.9711 25.9595ZM16.6111 26.7321C16.1862 26.7321 15.8385 26.3844 15.8385 25.9595C15.8385 24.9937 15.5681 24.5302 15.1818 23.9507C14.7568 23.294 14.2933 22.56 14.2933 21.1307C14.2933 19.7014 14.7568 18.9674 15.1818 18.3107C15.5681 17.7312 15.8385 17.2676 15.8385 16.3019C15.8385 15.8769 16.1862 15.5293 16.6111 15.5293C17.036 15.5293 17.3837 15.8769 17.3837 16.3019C17.3837 17.7312 16.9202 18.4652 16.4952 19.1219C16.1089 19.7014 15.8385 20.1263 15.8385 21.1307C15.8385 22.0576 16.1017 22.4911 16.4156 23.0079C16.4418 23.051 16.4684 23.0948 16.4952 23.1395C16.9202 23.7962 17.3837 24.5302 17.3837 25.9595C17.3837 26.3844 17.036 26.7321 16.6111 26.7321ZM21.4013 26.7321C20.9764 26.7321 20.6287 26.3844 20.6287 25.9595C20.6287 24.9937 20.3969 24.5302 19.972 23.9507C19.547 23.294 19.0835 22.56 19.0835 21.1307C19.0835 19.7014 19.547 18.9674 19.972 18.3107C20.3583 17.7312 20.6287 17.2676 20.6287 16.3019C20.6287 15.8769 20.9764 15.5293 21.4013 15.5293C21.8262 15.5293 22.1739 15.8769 22.1739 16.3019C22.1739 17.7312 21.7103 18.4652 21.2854 19.1219C20.8991 19.7014 20.6287 20.1649 20.6287 21.1307C20.6287 22.0965 20.8991 22.56 21.2854 23.1395C21.7103 23.7962 22.1739 24.5302 22.1739 25.9595C22.1739 26.3844 21.8262 26.7321 21.4013 26.7321ZM6.56718 27.891H24.3372C24.7235 27.891 24.878 28.2387 24.9167 28.6636V35.4626C24.9167 39.8279 21.5944 43.3432 17.2292 43.3432H13.6752C10.6234 43.3432 7.99651 41.6049 6.68308 39.0939H3.86305C1.73837 39.0939 0 37.3555 0 35.2308C0 33.1061 1.73837 31.3678 3.86305 31.3678H5.60142V28.6636C5.60142 28.2387 6.14225 27.891 6.56718 27.891ZM3.86305 37.5486C2.58824 37.5486 1.54522 36.5056 1.54522 35.2308C1.54522 33.956 2.58824 32.9129 3.86305 32.9129H5.60142V35.4625C5.60142 35.9704 5.74935 36.4597 5.89169 36.9305C5.95509 37.1402 6.01737 37.3462 6.06499 37.5486H3.86305ZM17.1906 41.7979C20.6673 41.7979 23.3328 38.9393 23.3328 35.4625V29.4362H7.10801V35.4625C7.10801 38.9393 10.1598 41.7979 13.6366 41.7979H17.1906ZM30.8162 19.2327C31.2319 19.2327 31.572 18.8926 31.572 18.4769C31.572 17.5322 31.7988 17.0787 32.2145 16.5118C32.6302 15.8694 33.0837 15.1513 33.0837 13.7531C33.0837 12.3548 32.6302 11.6368 32.2145 10.9944C31.8366 10.4275 31.572 9.97402 31.572 9.02925C31.572 8.61355 31.2319 8.27344 30.8162 8.27344C30.4005 8.27344 30.0604 8.61355 30.0604 9.02925C30.0604 10.4275 30.5139 11.1455 30.9296 11.788C31.3075 12.3548 31.572 12.8083 31.572 13.7531C31.572 14.6979 31.3075 15.1513 30.9296 15.7182C30.5139 16.3606 30.0604 17.0787 30.0604 18.4769C30.0604 18.8926 30.4005 19.2327 30.8162 19.2327ZM41.0197 18.4769C41.0197 18.8926 40.6796 19.2327 40.2639 19.2327C39.8482 19.2327 39.5081 18.8926 39.5081 18.4769C39.5081 17.0787 39.9616 16.3606 40.3773 15.7182C40.7552 15.1513 41.0197 14.6979 41.0197 13.7531C41.0197 12.8083 40.7552 12.3548 40.3773 11.788C39.9616 11.1455 39.5081 10.4275 39.5081 9.02925C39.5081 8.61355 39.8482 8.27344 40.2639 8.27344C40.6796 8.27344 41.0197 8.61355 41.0197 9.02925C41.0197 9.97402 41.2842 10.4275 41.6621 10.9944C42.0778 11.6368 42.5313 12.3548 42.5313 13.7531C42.5313 15.1513 42.0778 15.8694 41.6621 16.5118C41.2464 17.0787 41.0197 17.5322 41.0197 18.4769ZM45.3278 20.3664H27.9441C27.5662 20.3664 27.4151 20.7066 27.3773 21.1223V27.7734C27.3773 32.0438 30.6273 35.4827 34.8976 35.4827H38.3744C41.3598 35.4827 43.9296 33.7821 45.2145 31.3257H47.9732C50.0517 31.3257 51.7523 29.6252 51.7523 27.5467C51.7523 25.4682 50.0517 23.7676 47.9732 23.7676H46.2726V21.1223C46.2726 20.7066 45.7435 20.3664 45.3278 20.3664ZM47.9732 29.8142C49.2203 29.8142 50.2406 28.7938 50.2406 27.5467C50.2406 26.2996 49.2203 25.2793 47.9732 25.2793H46.2726V27.7735C46.2726 28.2702 46.1279 28.7489 45.9887 29.2095L45.9886 29.2096C45.9266 29.4147 45.8657 29.6162 45.8191 29.8142H47.9732ZM34.9354 33.9711C31.5342 33.9711 28.9267 31.1746 28.9267 27.7735V21.8781H44.7988V27.7735C44.7988 31.1746 41.8133 33.9711 38.4121 33.9711H34.9354Z" fill="currentColor"/>
</mask>
<g mask="url(#mask0)">
</g>
</svg>
