<svg width="20" height="20" viewBox="0 0 20 20" fill="white" xmlns="http://www.w3.org/2000/svg">
<path d="M14 5.33333H12.3333V2.83333C12.3333 2.375 11.9583 2 11.5 2H8.16667C7.70833 2 7.33333 2.375 7.33333 2.83333V5.33333H5.66667C4.75 5.33333 4 6.08333 4 7V16.1667C4 17.0833 4.75 17.8333 5.66667 17.8333C5.66667 18.2917 6.04167 18.6667 6.5 18.6667C6.95833 18.6667 7.33333 18.2917 7.33333 17.8333H12.3333C12.3333 18.2917 12.7083 18.6667 13.1667 18.6667C13.625 18.6667 14 18.2917 14 17.8333C14.9167 17.8333 15.6667 17.0833 15.6667 16.1667V7C15.6667 6.08333 14.9167 5.33333 14 5.33333ZM7.75 15.3333H6.5V7.83333H7.75V15.3333ZM10.4583 15.3333H9.20833V7.83333H10.4583V15.3333ZM11.0833 5.33333H8.58333V3.25H11.0833V5.33333ZM13.1667 15.3333H11.9167V7.83333H13.1667V15.3333Z" fill="currentColor"/>
</svg>
