<svg width="21" height="20" viewBox="0 0 21 20" fill="white" xmlns="http://www.w3.org/2000/svg">
<path d="M5.9658 8.33325C5.05198 8.33325 4.30432 9.08325 4.30432 9.99992C4.30432 10.9166 5.05198 11.6666 5.9658 11.6666C6.87961 11.6666 7.62727 10.9166 7.62727 9.99992C7.62727 9.08325 6.87961 8.33325 5.9658 8.33325ZM15.9346 8.33325C15.0208 8.33325 14.2732 9.08325 14.2732 9.99992C14.2732 10.9166 15.0208 11.6666 15.9346 11.6666C16.8485 11.6666 17.5961 10.9166 17.5961 9.99992C17.5961 9.08325 16.8485 8.33325 15.9346 8.33325ZM10.9502 8.33325C10.0364 8.33325 9.28874 9.08325 9.28874 9.99992C9.28874 10.9166 10.0364 11.6666 10.9502 11.6666C11.864 11.6666 12.6117 10.9166 12.6117 9.99992C12.6117 9.08325 11.864 8.33325 10.9502 8.33325Z" fill="currentColor"/>
</svg>
