<svg width="20" height="20" viewBox="0 0 20 20" fill="white" xmlns="http://www.w3.org/2000/svg">
<path d="M15.8333 5.00004H14.1667C14.1667 2.70004 12.3 0.833374 10 0.833374C7.7 0.833374 5.83333 2.70004 5.83333 5.00004H4.16667C3.25 5.00004 2.50833 5.75004 2.50833 6.66671L2.5 16.6667C2.5 17.5834 3.25 18.3334 4.16667 18.3334H15.8333C16.75 18.3334 17.5 17.5834 17.5 16.6667V6.66671C17.5 5.75004 16.75 5.00004 15.8333 5.00004ZM10 2.50004C11.3833 2.50004 12.5 3.61671 12.5 5.00004H7.5C7.5 3.61671 8.61667 2.50004 10 2.50004ZM10 10.8334C7.7 10.8334 5.83333 8.96671 5.83333 6.66671H7.5C7.5 8.05004 8.61667 9.16671 10 9.16671C11.3833 9.16671 12.5 8.05004 12.5 6.66671H14.1667C14.1667 8.96671 12.3 10.8334 10 10.8334Z" fill="currentColor"/>
</svg>
