<svg width="20" height="20" viewBox="0 0 20 20" fill="white" xmlns="http://www.w3.org/2000/svg">
<g clip-path="url(#clip0)">
<path d="M4.58337 18.3333V12.0833H3.33337V7.49996C3.33337 6.58329 4.08337 5.83329 5.00004 5.83329H7.50004C8.41671 5.83329 9.16671 6.58329 9.16671 7.49996V12.0833H7.91671V18.3333H4.58337ZM15 18.3333V13.3333H17.5L15.3834 6.97496C15.15 6.29163 14.5167 5.83329 13.8 5.83329H13.7C12.9834 5.83329 12.3417 6.29163 12.1167 6.97496L10 13.3333H12.5V18.3333H15ZM6.25004 4.99996C7.17504 4.99996 7.91671 4.25829 7.91671 3.33329C7.91671 2.40829 7.17504 1.66663 6.25004 1.66663C5.32504 1.66663 4.58337 2.40829 4.58337 3.33329C4.58337 4.25829 5.32504 4.99996 6.25004 4.99996ZM13.75 4.99996C14.675 4.99996 15.4167 4.25829 15.4167 3.33329C15.4167 2.40829 14.675 1.66663 13.75 1.66663C12.825 1.66663 12.0834 2.40829 12.0834 3.33329C12.0834 4.25829 12.825 4.99996 13.75 4.99996Z" fill="currentColor"/>
</g>
<defs>
<clipPath id="clip0">
<rect width="20" height="20" fill="currentColor"/>
</clipPath>
</defs>
</svg>
