<svg width="20" height="18" viewBox="0 0 20 18" fill="white" xmlns="http://www.w3.org/2000/svg">
<path d="M19.2454 8.99167L17.2057 6.66667L17.4899 3.59167L14.4722 2.90833L12.8922 0.25L10.05 1.46667L7.20786 0.25L5.62794 2.90833L2.6102 3.58333L2.89442 6.66667L0.854736 8.99167L2.89442 11.3167L2.6102 14.4L5.62794 15.0833L7.20786 17.75L10.05 16.525L12.8922 17.7417L14.4722 15.0833L17.4899 14.4L17.2057 11.325L19.2454 8.99167ZM15.9434 10.225L15.4753 10.7667L15.5422 11.475L15.6926 13.1L14.1043 13.4583L13.4022 13.6167L13.0343 14.2333L12.2068 15.6333L10.7188 14.9917L10.05 14.7083L9.38966 14.9917L7.90169 15.6333L7.07411 14.2417L6.7063 13.625L6.00411 13.4667L4.41583 13.1083L4.5663 11.475L4.63317 10.7667L4.16505 10.225L3.08669 9L4.16505 7.76667L4.63317 7.225L4.55794 6.50833L4.40747 4.89167L5.99575 4.53333L6.69794 4.375L7.06575 3.75833L7.89333 2.35833L9.3813 3L10.05 3.28333L10.7104 3L12.1984 2.35833L13.026 3.75833L13.3938 4.375L14.096 4.53333L15.6843 4.89167L15.5338 6.51667L15.4669 7.225L15.935 7.76667L17.0134 8.99167L15.9434 10.225Z" fill="currentColor"/>
<path d="M8.45342 10.4583L6.51404 8.51668L5.27686 9.75835L8.45342 12.9333L14.5892 6.80002L13.352 5.55835L8.45342 10.4583Z" fill="currentColor"/>
</svg>
