<svg width="20" height="20" viewBox="0 0 20 20" fill="white" xmlns="http://www.w3.org/2000/svg">
<path d="M16.6666 4.99996H14.85C14.9416 4.74163 15 4.45829 15 4.16663C15 2.78329 13.8833 1.66663 12.5 1.66663C11.625 1.66663 10.8666 2.11663 10.4166 2.79163L9.99996 3.34996L9.58329 2.78329C9.13329 2.11663 8.37496 1.66663 7.49996 1.66663C6.11663 1.66663 4.99996 2.78329 4.99996 4.16663C4.99996 4.45829 5.05829 4.74163 5.14996 4.99996H3.33329C2.40829 4.99996 1.67496 5.74163 1.67496 6.66663L1.66663 15.8333C1.66663 16.7583 2.40829 17.5 3.33329 17.5H16.6666C17.5916 17.5 18.3333 16.7583 18.3333 15.8333V6.66663C18.3333 5.74163 17.5916 4.99996 16.6666 4.99996ZM12.5 3.33329C12.9583 3.33329 13.3333 3.70829 13.3333 4.16663C13.3333 4.62496 12.9583 4.99996 12.5 4.99996C12.0416 4.99996 11.6666 4.62496 11.6666 4.16663C11.6666 3.70829 12.0416 3.33329 12.5 3.33329ZM7.49996 3.33329C7.95829 3.33329 8.33329 3.70829 8.33329 4.16663C8.33329 4.62496 7.95829 4.99996 7.49996 4.99996C7.04163 4.99996 6.66663 4.62496 6.66663 4.16663C6.66663 3.70829 7.04163 3.33329 7.49996 3.33329ZM16.6666 15.8333H3.33329V14.1666H16.6666V15.8333ZM16.6666 11.6666H3.33329V6.66663H7.56663L5.83329 9.02496L7.18329 9.99996L9.99996 6.16663L12.8166 9.99996L14.1666 9.02496L12.4333 6.66663H16.6666V11.6666Z" fill="currentColor"/>
</svg>
