<svg width="20" height="20" viewBox="0 0 20 20" fill="white" xmlns="http://www.w3.org/2000/svg">
<path d="M11.6666 4.99996V3.33329H8.33329V4.99996H11.6666ZM3.33329 6.66663V15.8333H16.6666V6.66663H3.33329ZM16.6666 4.99996C17.5916 4.99996 18.3333 5.74163 18.3333 6.66663V15.8333C18.3333 16.7583 17.5916 17.5 16.6666 17.5H3.33329C2.40829 17.5 1.66663 16.7583 1.66663 15.8333L1.67496 6.66663C1.67496 5.74163 2.40829 4.99996 3.33329 4.99996H6.66663V3.33329C6.66663 2.40829 7.40829 1.66663 8.33329 1.66663H11.6666C12.5916 1.66663 13.3333 2.40829 13.3333 3.33329V4.99996H16.6666Z" fill="currentColor"/>
</svg>
