<svg width="20" height="20" viewBox="0 0 20 20" fill="white" xmlns="http://www.w3.org/2000/svg">
<path d="M15 1.67496L5.00004 1.66663C4.07504 1.66663 3.33337 2.40829 3.33337 3.33329V16.6666C3.33337 17.5916 4.07504 18.3333 5.00004 18.3333H15C15.925 18.3333 16.6667 17.5916 16.6667 16.6666V3.33329C16.6667 2.40829 15.925 1.67496 15 1.67496ZM15 16.6666H5.00004L4.99171 3.33329H15V16.6666Z" fill="currentColor"/>
<path d="M6.66671 5.83329C7.12694 5.83329 7.50004 5.4602 7.50004 4.99996C7.50004 4.53972 7.12694 4.16663 6.66671 4.16663C6.20647 4.16663 5.83337 4.53972 5.83337 4.99996C5.83337 5.4602 6.20647 5.83329 6.66671 5.83329Z" fill="currentColor"/>
<path d="M9.16671 5.83329C9.62694 5.83329 10 5.4602 10 4.99996C10 4.53972 9.62694 4.16663 9.16671 4.16663C8.70647 4.16663 8.33337 4.53972 8.33337 4.99996C8.33337 5.4602 8.70647 5.83329 9.16671 5.83329Z" fill="currentColor"/>
<path d="M10 15.8333C12.3 15.8333 14.1667 13.9667 14.1667 11.6667C14.1667 9.36667 12.3 7.5 10 7.5C7.70004 7.5 5.83337 9.36667 5.83337 11.6667C5.83337 13.9667 7.70004 15.8333 10 15.8333ZM11.9667 9.7C13.05 10.7833 13.05 12.55 11.9667 13.6333C10.8834 14.7167 9.11671 14.7167 8.03337 13.6333L11.9667 9.7Z" fill="currentColor"/>
</svg>
