<svg width="20" height="20" viewBox="0 0 20 20" fill="white" xmlns="http://www.w3.org/2000/svg">
<path d="M5.83329 7.49996C6.75377 7.49996 7.49996 6.75377 7.49996 5.83329C7.49996 4.91282 6.75377 4.16663 5.83329 4.16663C4.91282 4.16663 4.16663 4.91282 4.16663 5.83329C4.16663 6.75377 4.91282 7.49996 5.83329 7.49996Z" fill="currentColor"/>
<path d="M16.6666 10.8333V4.02496C16.6666 2.72496 15.6083 1.66663 14.3083 1.66663C13.6833 1.66663 13.0833 1.91663 12.6416 2.35829L11.6 3.39996C11.4666 3.35829 11.325 3.33329 11.175 3.33329C10.8416 3.33329 10.5333 3.43329 10.275 3.59996L12.575 5.89996C12.7416 5.64163 12.8416 5.33329 12.8416 4.99996C12.8416 4.84996 12.8166 4.71663 12.7833 4.57496L13.825 3.53329C13.95 3.40829 14.125 3.33329 14.3083 3.33329C14.6916 3.33329 15 3.64163 15 4.02496V10.8333H9.29163C9.04163 10.6583 8.81663 10.4583 8.60829 10.2333L7.44163 8.94163C7.28329 8.76663 7.08329 8.62496 6.86663 8.52496C6.60829 8.39996 6.32496 8.33329 6.03329 8.33329C4.99996 8.34163 4.16663 9.17496 4.16663 10.2083V10.8333H1.66663V15.8333C1.66663 16.75 2.41663 17.5 3.33329 17.5C3.33329 17.9583 3.70829 18.3333 4.16663 18.3333H15.8333C16.2916 18.3333 16.6666 17.9583 16.6666 17.5C17.5833 17.5 18.3333 16.75 18.3333 15.8333V10.8333H16.6666ZM16.6666 15.8333H3.33329V12.5H16.6666V15.8333Z" fill="currentColor"/>
</svg>
