<svg width="20" height="20" viewBox="0 0 20 20" fill="white" xmlns="http://www.w3.org/2000/svg">
<path d="M7.12502 9.99999C6.23335 9.40832 5.25002 8.94166 4.18335 8.65833C5.25002 8.94166 6.23335 9.40832 7.12502 9.99999ZM15.8167 8.65833C14.7417 8.94166 13.7417 9.41666 12.8417 10.025C13.7417 9.41666 14.7417 8.94166 15.8167 8.65833Z" fill="currentColor"/>
<path d="M12.9083 8.02496C12.7583 5.69996 11.8166 3.43329 10.05 1.66663C8.26663 3.44996 7.28329 5.71663 7.09163 8.02496C8.15829 8.59163 9.14163 9.32496 9.99996 10.2166C10.8583 9.33329 11.8416 8.59996 12.9083 8.02496ZM7.49163 10.2333C7.37496 10.15 7.24163 10.075 7.11663 9.99163C7.24163 10.0833 7.37496 10.15 7.49163 10.2333ZM12.8416 10.025C12.7333 10.1 12.6166 10.1583 12.5083 10.2416C12.6166 10.1583 12.7333 10.1 12.8416 10.025ZM9.99996 12.875C8.20829 10.1416 5.14996 8.33329 1.66663 8.33329C1.66663 12.7666 4.46663 16.5166 8.35829 17.9083C8.88329 18.1 9.43329 18.2416 9.99996 18.3333C10.5666 18.2333 11.1083 18.0916 11.6416 17.9083C15.5333 16.5166 18.3333 12.7666 18.3333 8.33329C14.85 8.33329 11.7916 10.1416 9.99996 12.875Z" fill="currentColor"/>
</svg>
